<svg width="119" height="60" viewBox="0 0 119 60" fill="none" xmlns="http://www.w3.org/2000/svg">
<path d="M22.8747 17.5642C25.5541 17.5673 27.5143 19.6279 27.5847 22.0454C27.6519 24.4049 25.7901 26.7232 23.1983 26.7324L10.9567 26.772L10.8817 40.8727C10.8676 43.6334 8.13826 45.5643 5.50736 45.575C2.89366 45.5857 0.111137 43.5876 0.106448 40.769L0.0564246 14.3811C0.051735 11.9087 0.633252 9.63156 1.6556 7.39406C2.86709 4.74322 4.96493 2.54384 7.68492 1.34197C9.43729 0.567153 11.2975 0.0394256 13.2547 0.0394256L26.85 0.0302743C29.348 0.0287491 31.2895 2.08628 31.524 4.37869C31.8382 7.47337 29.4871 9.91372 26.3826 9.9122L17.1565 9.90762C16.5765 9.90762 15.9481 10.0373 15.3666 10.1303C11.5289 10.7404 9.74212 13.9266 10.3987 17.5505L22.8747 17.5642Z" fill="black"/>
<path d="M49.4006 33.2148L49.4475 20.7903C49.4569 18.4704 51.6282 16.7637 53.8339 16.692C56.0037 16.6234 58.3422 18.2721 58.3657 20.6256C58.4094 25.0792 58.5923 29.4215 58.3282 33.863C57.928 40.5923 51.8893 45.6209 45.2159 45.5736C38.4519 45.5248 32.4851 40.3543 32.2209 33.5778C32.0489 29.1607 32.1302 24.8916 32.2318 20.4852C32.285 18.1425 34.7486 16.5608 36.8965 16.6996C39.1194 16.843 41.1484 18.6397 41.1515 20.9337L41.1687 33.1217C41.1703 34.2077 41.6408 35.0938 42.4803 35.7558C44.2608 37.1605 46.8573 37.0842 48.4533 35.4507C49.0208 34.8696 49.3975 34.1253 49.4006 33.2132V33.2148Z" fill="black"/>
<path d="M110.341 27.9159C108.864 25.2757 105.386 24.8486 103.06 26.5798C101.928 27.4217 101.626 28.6617 101.619 30.0314L101.551 42.0761C101.539 44.2464 99.1267 45.7503 97.1602 45.5475C95.6892 45.3949 94.72 44.7635 94.0432 43.5708C93.779 43.1041 93.4445 42.4909 93.4445 41.8747L93.4523 28.8707C94.2902 21.2339 101.52 16.1411 109.127 17.8799C114.912 19.2023 118.962 24.2752 118.942 30.1763L118.901 41.7313C118.894 43.9185 117.008 45.4804 114.903 45.5703C112.916 45.6558 110.796 44.0085 110.795 41.9586L110.791 30.4798C110.791 29.6623 110.768 28.677 110.341 27.9143V27.9159Z" fill="#48B754"/>
<path d="M73.6479 41.3427C73.6479 43.9356 70.8419 45.6576 68.6925 45.5722C66.0632 45.4669 64.0122 43.4628 64.0138 40.8257L64.0498 4.25996C64.0529 1.74639 66.5087 -0.00304647 68.8129 3.98296e-06C71.1436 0.00305443 73.6698 1.72503 73.6682 4.27216L73.6479 41.3427Z" fill="black"/>
<path d="M88.4017 41.3577C88.4017 43.8453 85.8177 45.5444 83.6636 45.5749C81.3234 45.6069 78.8457 43.8316 78.8473 41.3028L78.8723 3.979C78.8739 1.57373 81.5423 0.00122008 83.5948 0.0286741C85.8724 0.0591786 88.397 1.69269 88.397 4.15135L88.4001 41.3592L88.4017 41.3577ZM82.9601 2.34091C81.3015 2.79543 80.5309 4.43962 81.0436 5.89469C81.5204 7.24909 83.0695 8.09864 84.5249 7.667C86.0006 7.22926 86.8744 5.73759 86.4648 4.26422C86.0819 2.88389 84.5374 1.90623 82.9601 2.33939V2.34091ZM83.7355 43.7706C84.886 43.7584 86.7009 42.9714 86.7025 41.6048L86.7431 19.971C86.7447 18.8637 85.8239 18.1422 84.9079 17.7594C83.9918 17.3766 82.9867 17.465 82.0878 17.8662C81.0811 18.3146 80.459 19.158 80.459 20.2928L80.4621 41.4553C80.8482 42.9286 81.9815 43.7904 83.7355 43.7721V43.7706Z" fill="black"/>
<path d="M83.7355 43.7705C81.9816 43.7888 80.8482 42.9285 80.4621 41.4536L80.459 20.2912C80.459 19.1564 81.0811 18.3129 82.0879 17.8645C82.9867 17.4634 83.9809 17.3704 84.9079 17.7578C85.8349 18.1452 86.7447 18.8636 86.7431 19.9693L86.7025 41.6031C86.6993 42.9697 84.886 43.7567 83.7355 43.7689V43.7705Z" fill="#48B754"/>
<path d="M82.9602 2.34142C84.539 1.90826 86.0819 2.88745 86.4649 4.26625C86.8745 5.73962 86.0006 7.23129 84.5249 7.66903C83.0696 8.10067 81.5204 7.24959 81.0437 5.89672C80.5309 4.44165 81.3016 2.79746 82.9602 2.34295V2.34142Z" fill="#48B754"/>
<path d="M3.86427 55.7114C3.86427 55.9707 3.81738 56.2162 3.72202 56.4481C3.62823 56.6799 3.49692 56.8767 3.32965 57.0399C3.11862 57.2427 2.87007 57.3968 2.58556 57.5005C2.30106 57.6042 1.93995 57.6576 1.50381 57.6576H0.812873V59.8844H0V53.9116H1.53821C1.89931 53.9116 2.20883 53.9406 2.46363 54.0001C2.71843 54.0596 2.94354 54.1541 3.13738 54.2853C3.36561 54.4378 3.54225 54.6315 3.672 54.8649C3.80018 55.0982 3.86584 55.3819 3.86584 55.7129L3.86427 55.7114ZM3.01701 55.7312C3.01701 55.5253 2.98105 55.3469 2.90758 55.1943C2.83411 55.0418 2.72469 54.9183 2.57618 54.8207C2.448 54.7383 2.29793 54.6788 2.12598 54.6437C1.95402 54.6086 1.74142 54.5919 1.48662 54.5919H0.812873V56.9788H1.36781C1.69609 56.9788 1.96184 56.9529 2.16506 56.9011C2.36827 56.8492 2.5371 56.7562 2.66997 56.6219C2.79034 56.5014 2.87788 56.3703 2.9326 56.2284C2.98731 56.0866 3.01545 55.9203 3.01545 55.7312H3.01701Z" fill="black"/>
<path d="M13.4684 57.6455C13.4684 58.3989 13.2824 58.9816 12.9088 59.3918C12.5368 59.8021 12.0397 60.008 11.4206 60.008C10.8016 60.008 10.2795 59.796 9.91368 59.372C9.54789 58.948 9.36499 58.373 9.36499 57.6455C9.36499 56.9179 9.55414 56.3155 9.93087 55.9006C10.3076 55.4858 10.8047 55.2783 11.4206 55.2783C12.0365 55.2783 12.5368 55.4842 12.9088 55.8976C13.2808 56.3109 13.4684 56.8935 13.4684 57.6439V57.6455ZM12.6712 57.6455C12.6712 57.0659 12.5633 56.6342 12.346 56.3521C12.1288 56.0699 11.8208 55.9296 11.4206 55.9296C11.0204 55.9296 10.7078 56.0699 10.4889 56.3521C10.2717 56.6342 10.1622 57.0659 10.1622 57.6455C10.1622 58.2251 10.2717 58.6323 10.4889 58.9236C10.7062 59.2134 11.0173 59.3583 11.4206 59.3583C11.8239 59.3583 12.1256 59.2165 12.3429 58.9312C12.5602 58.646 12.6696 58.2174 12.6696 57.6455H12.6712Z" fill="black"/>
<path d="M25.1317 55.4043L23.9686 59.8854H23.2527L22.1303 56.4323L21.0157 59.8854H20.3044L19.1289 55.4043H19.934L20.7437 58.8742L21.8333 55.4043H22.4711L23.5888 58.8742L24.3532 55.4043H25.1301H25.1317Z" fill="black"/>
<path d="M33.1124 59.9882C32.3809 59.9882 31.8134 59.7869 31.4085 59.3842C31.0037 58.9816 30.802 58.4096 30.802 57.6699C30.802 56.9301 30.9974 56.3597 31.3898 55.9265C31.7821 55.4949 32.2949 55.2783 32.928 55.2783C33.2125 55.2783 33.4657 55.318 33.6846 55.3988C33.9034 55.4797 34.0957 55.6047 34.2598 55.7755C34.424 55.9464 34.5506 56.1553 34.6381 56.4039C34.7257 56.651 34.7694 56.9545 34.7694 57.313V57.7217H31.5883C31.5883 58.2434 31.7227 58.6414 31.9916 58.9175C32.2605 59.1936 32.631 59.3308 33.1062 59.3308C33.2766 59.3308 33.4423 59.3125 33.6064 59.2744C33.769 59.2363 33.9175 59.189 34.0488 59.1295C34.1879 59.0685 34.3067 59.009 34.4021 58.9511C34.4974 58.8931 34.5772 58.8397 34.6397 58.7879H34.685V59.61C34.5944 59.645 34.4818 59.6877 34.3474 59.7396C34.2129 59.7915 34.0926 59.8326 33.9863 59.8616C33.8362 59.9013 33.6986 59.9318 33.5767 59.9547C33.4548 59.976 33.3 59.9867 33.114 59.9867L33.1124 59.9882ZM34.0175 57.1437C34.0113 56.9408 33.9878 56.7654 33.9441 56.619C33.9003 56.4726 33.8378 56.3475 33.7549 56.2453C33.6643 56.1324 33.5486 56.047 33.4079 55.9891C33.2672 55.9296 33.0921 55.9006 32.8842 55.9006C32.6763 55.9006 32.5043 55.9311 32.3605 55.9906C32.2167 56.0501 32.0854 56.1385 31.9682 56.2529C31.8525 56.3704 31.7649 56.5016 31.7055 56.6434C31.6446 56.7868 31.6071 56.953 31.5899 57.1421H34.0191L34.0175 57.1437Z" fill="black"/>
<path d="M43.2883 56.2138H43.2477C43.1898 56.197 43.1289 56.1878 43.0648 56.1833C43.0007 56.1787 42.9225 56.1772 42.8319 56.1772C42.624 56.1772 42.416 56.2214 42.2113 56.3099C42.0065 56.3983 41.8111 56.5295 41.6282 56.7034V59.8835H40.856V55.4023H41.6282V56.0689C41.9111 55.8264 42.1566 55.654 42.366 55.5533C42.5755 55.4527 42.7787 55.4023 42.9772 55.4023C43.057 55.4023 43.1164 55.4039 43.1555 55.4084C43.1945 55.413 43.2399 55.4191 43.2883 55.4267V56.2122V56.2138Z" fill="black"/>
<path d="M58.6189 59.8834V54.6168H56.5632V53.9106H61.4874V54.6168H59.4317V59.8834H58.6173H58.6189Z" fill="black"/>
<path d="M70.2668 57.6455C70.2668 58.3989 70.0808 58.9816 69.7071 59.3918C69.3351 59.8021 68.838 60.008 68.219 60.008C67.5999 60.008 67.0778 59.796 66.712 59.372C66.3462 58.948 66.1633 58.373 66.1633 57.6455C66.1633 56.9179 66.3525 56.3155 66.7292 55.9006C67.1059 55.4858 67.6031 55.2783 68.219 55.2783C68.8349 55.2783 69.3351 55.4842 69.7071 55.8976C70.0792 56.3109 70.2668 56.8935 70.2668 57.6439V57.6455ZM69.4695 57.6455C69.4695 57.0659 69.3617 56.6342 69.1444 56.3521C68.9271 56.0699 68.6191 55.9296 68.219 55.9296C67.8188 55.9296 67.5061 56.0699 67.2873 56.3521C67.07 56.6342 66.9606 57.0659 66.9606 57.6455C66.9606 58.2251 67.07 58.6323 67.2873 58.9236C67.5046 59.2134 67.8156 59.3583 68.219 59.3583C68.6223 59.3583 68.924 59.2165 69.1413 58.9312C69.3585 58.646 69.468 58.2174 69.468 57.6455H69.4695Z" fill="black"/>
<path d="M89.6067 59.8834H88.7922V54.7373L87.1977 59.316H86.7038L85.1218 54.7373V59.8834H84.3621V53.9106H85.472L87.0008 58.3124L88.4764 53.9106H89.6067V59.8834Z" fill="black"/>
<path d="M99.8691 57.6455C99.8691 58.3989 99.683 58.9816 99.3094 59.3918C98.9374 59.8021 98.4403 60.008 97.8213 60.008C97.2022 60.008 96.6801 59.796 96.3143 59.372C95.9485 58.948 95.7656 58.373 95.7656 57.6455C95.7656 56.9179 95.9548 56.3155 96.3315 55.9006C96.7082 55.4858 97.2054 55.2783 97.8213 55.2783C98.4372 55.2783 98.9374 55.4842 99.3094 55.8976C99.6815 56.3109 99.8691 56.8935 99.8691 57.6439V57.6455ZM99.0718 57.6455C99.0718 57.0659 98.964 56.6342 98.7467 56.3521C98.5294 56.0699 98.2214 55.9296 97.8213 55.9296C97.4211 55.9296 97.1084 56.0699 96.8896 56.3521C96.6723 56.6342 96.5629 57.0659 96.5629 57.6455C96.5629 58.2251 96.6723 58.6323 96.8896 58.9236C97.1069 59.2134 97.4179 59.3583 97.8213 59.3583C98.2246 59.3583 98.5263 59.2165 98.7436 58.9312C98.9608 58.646 99.0703 58.2174 99.0703 57.6455H99.0718Z" fill="black"/>
<path d="M109.527 55.4043L107.797 59.8854H107.102L105.384 55.4043H106.219L107.478 58.862L108.723 55.4043H109.529H109.527Z" fill="black"/>
<path d="M117.343 59.9882C116.611 59.9882 116.044 59.7869 115.639 59.3842C115.234 58.9816 115.033 58.4096 115.033 57.6699C115.033 56.9301 115.228 56.3597 115.62 55.9265C116.013 55.4949 116.525 55.2783 117.159 55.2783C117.443 55.2783 117.696 55.318 117.915 55.3988C118.134 55.4797 118.326 55.6047 118.49 55.7755C118.655 55.9464 118.781 56.1553 118.869 56.4039C118.956 56.651 119 56.9545 119 57.313V57.7217H115.819C115.819 58.2434 115.953 58.6414 116.222 58.9175C116.491 59.1936 116.861 59.3308 117.337 59.3308C117.507 59.3308 117.673 59.3125 117.837 59.2744C118 59.2363 118.148 59.189 118.279 59.1295C118.418 59.0685 118.537 59.009 118.633 58.9511C118.728 58.8931 118.808 58.8397 118.87 58.7879H118.916V59.61C118.825 59.645 118.712 59.6877 118.578 59.7396C118.443 59.7915 118.323 59.8326 118.217 59.8616C118.067 59.9013 117.929 59.9318 117.807 59.9547C117.685 59.976 117.531 59.9867 117.345 59.9867L117.343 59.9882ZM118.247 57.1437C118.24 56.9408 118.217 56.7654 118.173 56.619C118.129 56.4726 118.067 56.3475 117.984 56.2453C117.893 56.1324 117.778 56.047 117.637 55.9891C117.496 55.9296 117.321 55.9006 117.113 55.9006C116.905 55.9006 116.733 55.9311 116.589 55.9906C116.446 56.0501 116.314 56.1385 116.197 56.2529C116.081 56.3704 115.994 56.5016 115.935 56.6434C115.874 56.7868 115.836 56.953 115.819 57.1421H118.248L118.247 57.1437Z" fill="black"/>
</svg>
