<svg width="15" height="10" viewBox="0 0 15 10" fill="none" xmlns="http://www.w3.org/2000/svg">
<g transform="translate(15,0) scale(-1,1)">
<path d="M0.639954 4.07247C0.286529 4.07247 2.19058e-05 4.35898 2.18749e-05 4.7124C2.1844e-05 5.06583 0.286529 5.35233 0.639954 5.35233L0.639954 4.7124L0.639954 4.07247ZM13.8911 5.1649C14.141 4.91499 14.141 4.50981 13.8911 4.2599L9.81859 0.187403C9.56868 -0.0625064 9.1635 -0.0625064 8.91359 0.187402C8.66368 0.437311 8.66368 0.842494 8.91359 1.0924L12.5336 4.7124L8.91359 8.3324C8.66368 8.58231 8.66368 8.98749 8.91359 9.2374C9.1635 9.48731 9.56868 9.48731 9.81859 9.2374L13.8911 5.1649ZM0.639954 4.7124L0.639954 5.35233L13.4386 5.35234L13.4386 4.7124L13.4386 4.07247L0.639954 4.07247L0.639954 4.7124Z" fill="black"/>
</g>
</svg>
